<svg width="130.068359" height="22.013672" viewBox="0 0 130.068 22.0137" fill="none" xmlns="http://www.w3.org/2000/svg" xmlns:xlink="http://www.w3.org/1999/xlink">
	<desc>
			Created with Pixso.
	</desc>
	<defs>
		<clipPath id="clip1_355">
			<rect id="icn bxs-star" rx="0.000000" width="21.096386" height="21.096386" transform="translate(0.458617 0.458617)" fill="white" fill-opacity="0"/>
		</clipPath>
		<clipPath id="clip1_357">
			<rect id="icn bxs-star" rx="0.000000" width="21.096386" height="21.096386" transform="translate(27.472288 0.458617)" fill="white" fill-opacity="0"/>
		</clipPath>
		<clipPath id="clip1_359">
			<rect id="icn bxs-star" rx="0.000000" width="21.096386" height="21.096386" transform="translate(54.485962 0.458617)" fill="white" fill-opacity="0"/>
		</clipPath>
		<clipPath id="clip1_361">
			<rect id="icn bxs-star" rx="0.000000" width="21.096386" height="21.096386" transform="translate(81.499634 0.458617)" fill="white" fill-opacity="0"/>
		</clipPath>
		<clipPath id="clip1_363">
			<rect id="icn bx-star" rx="0.000000" width="21.096386" height="21.096386" transform="translate(108.513306 0.458617)" fill="white" fill-opacity="0"/>
		</clipPath>
		<clipPath id="clip1_354">
			<rect id="stars" rx="0.000000" width="129.150864" height="21.096386" transform="translate(0.458617 0.458617)" fill="white" fill-opacity="0"/>
		</clipPath>
	</defs>
	<g clip-path="url(#clip1_354)">
		<rect id="icn bxs-star" rx="0.000000" width="21.096386" height="21.096386" transform="translate(0.458617 0.458617)" fill="#FFFFFF" fill-opacity="0"/>
		<g clip-path="url(#clip1_355)">
			<path id="Vector" d="M20.13 8.41C20.07 8.24 19.96 8.1 19.82 7.98C19.68 7.87 19.51 7.81 19.33 7.79L14.1 7.38L11.84 2.37C11.77 2.21 11.65 2.07 11.5 1.97C11.35 1.88 11.18 1.83 11 1.83C10.83 1.83 10.65 1.88 10.5 1.97C10.36 2.07 10.24 2.21 10.17 2.37L7.9 7.38L2.67 7.79C2.5 7.81 2.33 7.87 2.19 7.98C2.05 8.09 1.94 8.23 1.88 8.4C1.83 8.56 1.81 8.74 1.85 8.91C1.89 9.09 1.98 9.24 2.11 9.37L5.97 13.13L4.6 19.05C4.56 19.23 4.58 19.42 4.64 19.59C4.71 19.76 4.83 19.91 4.98 20.01C5.13 20.12 5.31 20.17 5.49 20.17C5.67 20.18 5.86 20.12 6.01 20.02L11 16.69L16 20.02C16.15 20.12 16.34 20.18 16.52 20.17C16.71 20.17 16.89 20.11 17.05 20C17.2 19.89 17.31 19.73 17.37 19.55C17.43 19.38 17.44 19.19 17.39 19.01L15.71 13.14L19.87 9.39C20.14 9.15 20.24 8.76 20.13 8.41Z" fill="#F3CD03" fill-opacity="1.000000" fill-rule="nonzero"/>
		</g>
		<rect id="icn bxs-star" rx="0.000000" width="21.096386" height="21.096386" transform="translate(27.472288 0.458617)" fill="#FFFFFF" fill-opacity="0"/>
		<g clip-path="url(#clip1_357)">
			<path id="Vector" d="M47.14 8.41C47.08 8.24 46.98 8.1 46.84 7.98C46.69 7.87 46.52 7.81 46.34 7.79L41.12 7.38L38.85 2.37C38.78 2.21 38.66 2.07 38.52 1.97C38.37 1.88 38.19 1.83 38.02 1.83C37.84 1.83 37.67 1.88 37.52 1.97C37.37 2.07 37.25 2.21 37.18 2.37L34.92 7.38L29.69 7.79C29.51 7.81 29.35 7.87 29.21 7.98C29.07 8.09 28.96 8.23 28.9 8.4C28.84 8.56 28.83 8.74 28.87 8.91C28.91 9.09 29 9.24 29.12 9.37L32.99 13.13L31.62 19.05C31.58 19.23 31.59 19.42 31.66 19.59C31.72 19.76 31.84 19.91 31.99 20.01C32.14 20.12 32.32 20.17 32.51 20.17C32.69 20.18 32.87 20.12 33.02 20.02L38.02 16.69L43.01 20.02C43.17 20.12 43.35 20.18 43.54 20.17C43.73 20.17 43.91 20.11 44.06 20C44.21 19.89 44.33 19.73 44.39 19.55C44.45 19.38 44.45 19.19 44.4 19.01L42.73 13.14L46.89 9.39C47.16 9.15 47.26 8.76 47.14 8.41Z" fill="#F3CD03" fill-opacity="1.000000" fill-rule="nonzero"/>
		</g>
		<rect id="icn bxs-star" rx="0.000000" width="21.096386" height="21.096386" transform="translate(54.485962 0.458617)" fill="#FFFFFF" fill-opacity="0"/>
		<g clip-path="url(#clip1_359)">
			<path id="Vector" d="M74.15 8.41C74.09 8.24 73.99 8.1 73.85 7.98C73.71 7.87 73.53 7.81 73.36 7.79L68.13 7.38L65.86 2.37C65.79 2.21 65.67 2.07 65.53 1.97C65.38 1.88 65.21 1.83 65.03 1.83C64.85 1.83 64.68 1.88 64.53 1.97C64.38 2.07 64.26 2.21 64.19 2.37L61.93 7.38L56.7 7.79C56.52 7.81 56.36 7.87 56.22 7.98C56.08 8.09 55.97 8.23 55.91 8.4C55.85 8.56 55.84 8.74 55.88 8.91C55.92 9.09 56.01 9.24 56.13 9.37L60 13.13L58.63 19.05C58.59 19.23 58.6 19.42 58.67 19.59C58.73 19.76 58.85 19.91 59 20.01C59.15 20.12 59.33 20.17 59.52 20.17C59.7 20.18 59.88 20.12 60.03 20.02L65.03 16.69L70.02 20.02C70.18 20.12 70.36 20.18 70.55 20.17C70.74 20.17 70.92 20.11 71.07 20C71.22 19.89 71.34 19.73 71.4 19.55C71.46 19.38 71.46 19.19 71.41 19.01L69.74 13.14L73.9 9.39C74.17 9.15 74.27 8.76 74.15 8.41Z" fill="#F3CD03" fill-opacity="1.000000" fill-rule="nonzero"/>
		</g>
		<rect id="icn bxs-star" rx="0.000000" width="21.096386" height="21.096386" transform="translate(81.499634 0.458617)" fill="#FFFFFF" fill-opacity="0"/>
		<g clip-path="url(#clip1_361)">
			<path id="Vector" d="M101.17 8.41C101.11 8.24 101 8.1 100.86 7.98C100.72 7.87 100.55 7.81 100.37 7.79L95.14 7.38L92.88 2.37C92.81 2.21 92.69 2.07 92.54 1.97C92.39 1.88 92.22 1.83 92.04 1.83C91.87 1.83 91.69 1.88 91.54 1.97C91.4 2.07 91.28 2.21 91.21 2.37L88.94 7.38L83.71 7.79C83.54 7.81 83.37 7.87 83.23 7.98C83.09 8.09 82.98 8.23 82.92 8.4C82.87 8.56 82.85 8.74 82.89 8.91C82.93 9.09 83.02 9.24 83.15 9.37L87.01 13.13L85.64 19.05C85.6 19.23 85.62 19.42 85.68 19.59C85.75 19.76 85.87 19.91 86.02 20.01C86.17 20.12 86.35 20.17 86.53 20.17C86.71 20.18 86.9 20.12 87.05 20.02L92.04 16.69L97.04 20.02C97.19 20.12 97.38 20.18 97.56 20.17C97.75 20.17 97.93 20.11 98.09 20C98.24 19.89 98.35 19.73 98.41 19.55C98.47 19.38 98.48 19.19 98.43 19.01L96.75 13.14L100.91 9.39C101.18 9.15 101.28 8.76 101.17 8.41Z" fill="#F3CD03" fill-opacity="1.000000" fill-rule="nonzero"/>
		</g>
		<rect id="icn bx-star" rx="0.000000" width="21.096386" height="21.096386" transform="translate(108.513306 0.458617)" fill="#FFFFFF" fill-opacity="0"/>
		<g clip-path="url(#clip1_363)">
			<path id="Vector" d="M114.03 13.13L112.66 19.05C112.62 19.23 112.63 19.42 112.7 19.59C112.76 19.76 112.88 19.91 113.03 20.01C113.18 20.12 113.36 20.18 113.55 20.18C113.73 20.18 113.91 20.12 114.06 20.02L119.06 16.69L124.05 20.02C124.21 20.12 124.39 20.18 124.58 20.17C124.77 20.17 124.95 20.11 125.1 20C125.25 19.89 125.37 19.73 125.43 19.56C125.49 19.38 125.49 19.19 125.44 19.01L123.77 13.14L127.93 9.39C128.06 9.27 128.15 9.11 128.2 8.94C128.25 8.77 128.24 8.58 128.18 8.42C128.12 8.25 128.02 8.1 127.88 7.99C127.73 7.88 127.56 7.81 127.39 7.8L122.16 7.38L119.89 2.37C119.82 2.21 119.7 2.07 119.56 1.98C119.41 1.88 119.23 1.83 119.06 1.83C118.88 1.83 118.71 1.88 118.56 1.98C118.41 2.07 118.29 2.21 118.22 2.37L115.96 7.38L110.73 7.79C110.55 7.81 110.39 7.87 110.25 7.98C110.11 8.09 110 8.23 109.94 8.4C109.88 8.56 109.87 8.74 109.91 8.91C109.95 9.09 110.04 9.24 110.16 9.37L114.03 13.13ZM116.64 9.16C116.81 9.15 116.97 9.1 117.1 9C117.23 8.91 117.34 8.78 117.41 8.63L119.06 4.98L120.71 8.63C120.77 8.78 120.88 8.91 121.02 9C121.15 9.1 121.31 9.15 121.47 9.16L125.11 9.45L122.11 12.15C121.85 12.39 121.75 12.75 121.85 13.09L122.99 17.11L119.57 14.83C119.42 14.72 119.24 14.67 119.06 14.67C118.88 14.67 118.7 14.72 118.55 14.83L114.97 17.21L115.93 13.04C115.97 12.89 115.96 12.73 115.92 12.58C115.87 12.43 115.79 12.29 115.68 12.18L112.89 9.46L116.64 9.16Z" fill="#F3CD03" fill-opacity="1.000000" fill-rule="nonzero"/>
		</g>
	</g>
</svg>
